Coordinates
version=1
nRows=15
nColumns=46
inDegrees=yes

Units are S.I. units (second, meters, Newtons, ...)
Angles are in degrees.

endheader
time	pelvis_tilt	pelvis_list	pelvis_rotation	pelvis_tx	pelvis_ty	pelvis_tz	bb_angle	bb_tx	bb_ty	bb_tz	hip_flexion_r	hip_adduction_r	hip_rotation_r	knee_angle_r	knee_angle_r_beta	ankle_angle_r	subtalar_angle_r	mtp_angle_r	crank_angle_r	hip_flexion_l	hip_adduction_l	hip_rotation_l	knee_angle_l	knee_angle_l_beta	ankle_angle_l	subtalar_angle_l	mtp_angle_l	crank_angle_l	lumbar_extension	lumbar_bending	lumbar_rotation	arm_flex_r	arm_add_r	arm_rot_r	elbow_flex_r	pro_sup_r	wrist_flex_r	wrist_dev_r	arm_flex_l	arm_add_l	arm_rot_l	elbow_flex_l	pro_sup_l	wrist_flex_l	wrist_dev_l
      7.50500000	    -24.60955282	      8.23655863	     -1.78167399	      0.39911149	      1.09244325	     -0.31867620	      0.00000000	      0.50000000	      0.00000000	      0.25000000	     45.22969204	    -11.74341854	      4.08837023	     33.63291783	      0.58700515	    -11.49105033	     -0.82496801	      0.00000000	      0.00000000	     66.44489419	      0.65597125	     -0.39295312	    103.78915740	      1.81146252	     -9.06060827	     -4.54630334	      0.00000000	      0.00000000	    -65.82878405	     -0.89139332	      2.41255717	     48.86793322	    -22.37960191	     14.84504741	    101.30104497	     49.06501234	      0.00000000	      0.00000000	     58.00924572	    -22.44035029	     34.08153493	     84.59418437	     46.29291064	      0.00000000	      0.00000000
      7.51000000	    -24.65692796	      8.76631182	     -1.18000238	      0.39861286	      1.09046462	     -0.31849944	      0.00000000	      0.50000000	      0.00000000	      0.25000000	     43.91374683	    -12.61467032	      3.75824652	     32.03694432	      0.55915016	    -12.50862946	     -0.65248366	      0.00000000	      0.00000000	     68.16995870	      1.40444056	     -0.57033682	    105.60396196	      1.84313684	     -8.29912316	     -5.12085906	      0.00000000	      0.00000000	    -65.48432218	     -1.17909738	      1.60345470	     48.21285602	    -22.50038801	     14.58065909	    101.32114093	     49.04056699	      0.00000000	      0.00000000	     58.26689865	    -22.57932564	     34.31521600	     84.62329535	     46.32268503	      0.00000000	      0.00000000
      7.51500000	    -24.79292849	      9.21722166	     -0.55023772	      0.39801861	      1.08872099	     -0.31832292	      0.00000000	      0.50000000	      0.00000000	      0.25000000	     42.66425296	    -13.41538221	      3.38694265	     30.47083078	      0.53181632	    -13.65370449	     -0.64135759	      0.00000000	      0.00000000	     69.99910242	      2.13051421	     -0.70871820	    107.16789802	      1.87043267	     -8.16398773	     -5.48299285	      0.00000000	      0.00000000	    -65.17259984	     -1.62667582	      1.05037449	     46.92933216	    -22.34281033	     12.58544458	    101.83562645	     48.90116548	      0.00000000	      0.00000000	     59.27331814	    -23.30493059	     36.80566945	     85.08098572	     46.65990017	      0.00000000	      0.00000000
      7.52000000	    -25.01602994	      9.69972927	     -0.02804025	      0.39750988	      1.08705088	     -0.31807592	      0.00000000	      0.50000000	      0.00000000	      0.25000000	     41.57451775	    -14.18502815	      3.05386292	     29.04168532	      0.50687303	    -14.63738971	     -0.32862821	      0.00000000	      0.00000000	     71.87953209	      2.76194425	     -0.91726892	    108.60811181	      1.89556915	     -7.70802280	     -6.00634442	      0.00000000	      0.00000000	    -64.75730205	     -2.03854259	      0.27798879	     46.21506576	    -22.53238197	     12.33309269	    101.79942500	     48.86967651	      0.00000000	      0.00000000	     59.50573472	    -23.52296482	     37.08029968	     85.16593056	     46.70303836	      0.00000000	      0.00000000
      7.52500000	    -25.28857918	     10.12471028	      0.51549446	      0.39699218	      1.08550755	     -0.31784238	      0.00000000	      0.50000000	      0.00000000	      0.25000000	     40.54229762	    -14.94385659	      2.44348501	     27.66178199	      0.48278917	    -15.55453080	     -0.07609873	      0.00000000	      0.00000000	     73.78855945	      3.26538369	     -1.20231652	    109.90048922	      1.91812539	     -7.48527022	     -6.79282601	      0.00000000	      0.00000000	    -64.34938491	     -2.45872431	     -0.46527296	     45.50651690	    -22.58714866	     11.66689702	    101.76627410	     48.79022434	      0.00000000	      0.00000000	     59.92014410	    -24.06006761	     37.92731504	     85.69464896	     46.87686071	      0.00000000	      0.00000000
      7.53000000	    -25.57272916	     10.55115622	      0.93911491	      0.39635498	      1.08402389	     -0.31752243	      0.00000000	      0.50000000	      0.00000000	      0.25000000	     39.59288228	    -15.60713625	      2.17848996	     26.46339557	      0.46187338	    -16.23733323	      0.39946409	      0.00000000	      0.00000000	     75.67061256	      3.65940203	     -1.51765349	    111.05977364	      1.93835872	     -6.99391313	     -7.18297020	      0.00000000	      0.00000000	    -63.96122857	     -2.95616860	     -1.20503306	     45.17590077	    -22.74959541	     11.48315580	    101.69848907	     48.75867294	      0.00000000	      0.00000000	     60.25628825	    -24.30908222	     37.97820902	     85.82751917	     46.90239809	      0.00000000	      0.00000000
      7.53500000	    -25.84875911	     10.94787117	      1.47858915	      0.39600366	      1.08302992	     -0.31730807	      0.00000000	      0.50000000	      0.00000000	      0.25000000	     38.60620086	    -16.40360643	      1.37708111	     25.28231365	      0.44125962	    -17.11905602	      1.05472919	      0.00000000	      0.00000000	     77.47264389	      4.11834831	     -1.92414003	    111.89808988	      1.95299010	     -7.18473778	     -8.03644000	      0.00000000	      0.00000000	    -63.71946476	     -3.39296571	     -2.14693117	     44.52817507	    -22.41883113	     10.48832042	    101.28797652	     48.57763285	      0.00000000	      0.00000000	     60.83853275	    -25.60775879	     39.74195853	     87.21522256	     47.30561489	      0.00000000	      0.00000000
      7.54000000	    -26.09361762	     11.15937826	      1.90964943	      0.39569927	      1.08214328	     -0.31703234	      0.00000000	      0.50000000	      0.00000000	      0.25000000	     37.60260465	    -16.94140449	      0.60406878	     24.18390006	      0.42208868	    -18.01551477	      1.73050610	      0.00000000	      0.00000000	     79.18898552	      4.30334736	     -2.18419348	    112.68669691	      1.96675388	     -6.99945665	     -8.40066474	      0.00000000	      0.00000000	    -63.45177613	     -3.76368085	     -2.73826689	     44.06177268	    -22.62640768	     10.34689207	    101.02065137	     48.52033527	      0.00000000	      0.00000000	     61.04340505	    -26.09635606	     39.92472596	     87.61758654	     47.38771051	      0.00000000	      0.00000000
      7.54500000	    -26.29020360	     11.33537904	      2.20826420	      0.39544801	      1.08145595	     -0.31658164	      0.00000000	      0.50000000	      0.00000000	      0.25000000	     36.65188005	    -17.35271168	     -0.02979172	     23.26358142	      0.40602609	    -18.72564723	      2.33978068	      0.00000000	      0.00000000	     80.77917052	      4.42082788	     -2.31574873	    113.33729142	      1.97810890	     -6.71810942	     -8.55812558	      0.00000000	      0.00000000	    -63.30274485	     -4.18139456	     -3.27934048	     43.82568607	    -22.80071655	     10.26162506	    100.79622778	     48.47377624	      0.00000000	      0.00000000	     61.40843641	    -26.43373700	     40.01697997	     87.94398667	     47.44749715	      0.00000000	      0.00000000
      7.55000000	    -26.27400880	     11.43958375	      2.59957017	      0.39544761	      1.08146033	     -0.31614132	      0.00000000	      0.50000000	      0.00000000	      0.25000000	     35.44666533	    -17.80981546	     -1.02280338	     22.43149821	      0.39150350	    -19.36068124	      3.28368075	      0.00000000	      0.00000000	     82.02881100	      4.55961200	     -2.49551501	    113.70005419	      1.98444031	     -6.87132332	     -9.11700995	      0.00000000	      0.00000000	    -63.49040964	     -4.41839748	     -4.35276623	     44.17731413	    -22.36814857	     10.48400421	     99.84185598	     48.32976835	      0.00000000	      0.00000000	     61.90103374	    -28.30009410	     41.60842434	     89.98509521	     47.92330182	      0.00000000	      0.00000000
      7.55500000	    -26.36978225	     11.47764622	      2.82464189	      0.39545670	      1.08143916	     -0.31577382	      0.00000000	      0.50000000	      0.00000000	      0.25000000	     34.46559361	    -18.09136012	     -1.66811219	     21.72311480	      0.37913988	    -19.98778353	      4.14685525	      0.00000000	      0.00000000	     83.29627469	      4.54366752	     -2.64415387	    113.90599815	      1.98803471	     -6.97059712	     -9.61832675	      0.00000000	      0.00000000	    -63.52375978	     -4.71536022	     -5.13503588	     44.52190006	    -22.35457625	     11.14480979	     98.75302890	     48.21551170	      0.00000000	      0.00000000	     62.08251277	    -29.34775009	     41.94262759	     91.14279387	     48.11318419	      0.00000000	      0.00000000
      7.56000000	    -26.57851786	     11.46813700	      2.99813508	      0.39552875	      1.08157459	     -0.31511550	      0.00000000	      0.50000000	      0.00000000	      0.25000000	     33.71338432	    -18.25916027	     -2.26119349	     21.19271839	      0.36988271	    -20.58695407	      4.75938794	      0.00000000	      0.00000000	     84.50785380	      4.36412563	     -2.80404647	    113.88047674	      1.98758927	     -6.95898319	     -9.93970681	      0.00000000	      0.00000000	    -63.50998152	     -5.10122190	     -5.50650622	     44.39036529	    -22.51770941	     11.19394696	     98.54377258	     48.18670396	      0.00000000	      0.00000000	     62.43765302	    -29.72800532	     41.91278215	     91.38887237	     48.14516800	      0.00000000	      0.00000000
      7.56500000	    -26.39047119	     11.56655260	      3.22790649	      0.39588962	      1.08263295	     -0.31479819	      0.00000000	      0.50000000	      0.00000000	      0.25000000	     32.66249808	    -18.69631598	     -3.27753612	     20.98487524	      0.36625517	    -20.84406316	      5.95737055	      0.00000000	      0.00000000	     85.11266974	      4.37221525	     -3.15550660	    113.57374931	      1.98223587	     -7.24208865	    -11.01552991	      0.00000000	      0.00000000	    -64.03656978	     -5.35388882	     -6.40306990	     44.91694553	    -22.50792669	     11.83119752	     97.61095418	     48.09241526	      0.00000000	      0.00000000	     62.99143657	    -31.05913279	     42.89464016	     93.01094526	     48.48755778	      0.00000000	      0.00000000
      7.57000000	    -26.34712646	     11.50352567	      3.11124892	      0.39586189	      1.08355294	     -0.31387321	      0.00000000	      0.50000000	      0.00000000	      0.25000000	     32.04762489	    -18.67972439	     -3.60929025	     21.03658152	      0.36715761	    -21.25713660	      6.38914763	      0.00000000	      0.00000000	     85.70089971	      3.82473568	     -3.37373481	    113.17637675	      1.97530041	     -6.86140988	    -11.23838183	      0.00000000	      0.00000000	    -64.32193320	     -5.64658777	     -7.84389282	     46.55335817	    -21.50672625	     13.92817649	     95.33265158	     47.94012193	      0.00000000	      0.00000000	     62.66392670	    -33.50802883	     42.64348681	     95.34757275	     48.71527697	      0.00000000	      0.00000000
      7.57500000	    -26.43636276	     11.29584714	      2.94736249	      0.39607934	      1.08452086	     -0.31325179	      0.00000000	      0.50000000	      0.00000000	      0.25000000	     31.70367610	    -18.53242573	     -3.89548596	     21.32417803	      0.37217712	    -21.57024912	      6.89217020	      0.00000000	      0.00000000	     86.18851448	      3.21925722	     -3.50767706	    112.63484455	      1.96584889	     -6.14850820	    -11.64453861	      0.00000000	      0.00000000	    -64.52973917	     -6.07241645	     -8.03391315	     46.67064755	    -21.60254575	     13.97054786	     95.20533358	     47.92338948	      0.00000000	      0.00000000	     63.01219920	    -33.87019970	     42.60546208	     95.59592604	     48.74382438	      0.00000000	      0.00000000
